<?xml version="1.0" encoding="utf-8"?>
<svg version="1.1" id="Favicon" xmlns="http://www.w3.org/2000/svg" xmlns:xlink="http://www.w3.org/1999/xlink" x="0px" y="0px"
	 viewBox="0 0 80 88.9" style="enable-background:new 0 0 80 88.9;" xml:space="preserve">
<path fill="#1F2937" d="M45.1,77.1c-2.5,0.2-4.8-1.6-7.1-3.3c-7.7-5.7-15.4-11.3-23.1-16.9c-2.9-2.1-3.2-3.4-1.1-6.8c2.5-4.2,5.1-8.3,7.6-12.5
	c1.4-2.3,3.2-3.6,5.4-4.3c1.5-0.4,2.9-1.1,4.3-1.9c0.7-0.4,1.3-1.1,1.7-1.8c2.9-4.6,5.8-9.2,8.6-13.9c2.1-3.5,5.1-3.7,7.3-0.2
	c2.5,4,5.1,8,7.5,12c1.1,1.8,2.4,3,4.2,3.4c0.3,0.1,0.6,0.2,0.9,0.2c3.4,0.5,5.9,2.7,7.8,6.4c2.4,4.5,5.1,8.7,7.7,13.1
	c1.6,2.7,1.4,4.4-0.9,6.1C67.6,62.9,59.4,69,51.1,75.2C49.3,76.5,47.5,77.2,45.1,77.1z M36,49c0.1,0.1,0.2,0.1,0.3,0.2
	c-0.1,0.5-0.1,0.9-0.2,1.4c-1.2,3.9-2.3,7.7-3.5,11.6c-0.6,2.2-0.5,2.6,1.1,3.8c2.7,2,5.4,4,8.1,5.9c1.2,0.8,2.5,1,3.8,1.3
	c0.9,0.2,1.5-0.5,1.8-1.6c1.4-5.1,2.8-10.2,4.2-15.3c0.7-2.5,0.5-4.6-0.9-6.7c-2-3.1-3.9-6.3-5.8-9.5c-1-1.7-1.5-3.7-1.3-5.8
	c0.3-3.9,0.6-7.9,0.9-11.8c0.1-1.6,0.2-3.2,0.3-4.8c-0.7,0.4-1.1,0.9-1.4,1.5c-1.2,1.9-2.4,3.8-3.6,5.8C36,31,32.3,37.1,28.5,43.2
	c-0.2,0.4-0.7,0.5-1,0.8c-0.1-0.5-0.2-0.9-0.2-1.4c0-0.4,0.1-0.7,0.1-1.1c0.2-1.4,0.4-2.7,0.6-4.1c-1.5-0.2-2.8,0.4-3.7,1.8
	c-2.6,4.2-5.1,8.5-7.7,12.7c-0.5,0.8-0.4,1.4,0.3,1.9c0.4,0.3,0.7,0.6,1.1,0.8c2.6,1.9,5.1,3.8,7.7,5.7c1.3,0.9,1.7,0.9,2.7-0.5
	c2.2-3.2,4.4-6.5,6.6-9.7C35.3,49.6,35.7,49.3,36,49z M61.5,50.1c0.1,0,0.2,0,0.3,0c0.9-4.2,1.8-8.4,2.6-12.6c0.1-0.4-0.5-1.4-1-1.6
	c-0.9-0.5-1.9-0.6-2.9-0.9c-0.9-0.2-1.3,0.3-1.1,1.5c0.5,3.4,1,6.9,1.5,10.3C61,47.9,61.3,49,61.5,50.1z"/>
</svg>
